# xmcd CD database file
#
# Track frame offsets:
#	150
#	20855
#	40577
#	62002
#	77895
#	95813
#	111013
#	128133
#	147833
#	164776
#	184869
#	203294
#
# Disc length: 2957 seconds
#
# Revision: 1
# Processed by: cddbd v1.5.1PL0 Copyright (c) Steve Scherf et al.
# Submitted via: CDex 1.51
#
DISCID=a60b8b0c
DTITLE=Beverley Mahood - Moody Blue
DYEAR=2004
DGENRE=Country
TTITLE0=Free
TTITLE1=The First Day You Wake Up Alone
TTITLE2=Making It Up As You Go
TTITLE3=My Wheels Got Wings
TTITLE4=I Like That Shirt
TTITLE5=You Can Never Tell
TTITLE6=Ghost of 66
TTITLE7=End Of A Long Goodbye
TTITLE8=Take Me Home
TTITLE9=Hurt City
TTITLE10=That Changes Everything
TTITLE11=Relentless Flame
EXTD=YEAR: 2004
EXTT0=
EXTT1=
EXTT2=
EXTT3=
EXTT4=
EXTT5=
EXTT6=
EXTT7=
EXTT8=
EXTT9=
EXTT10=
EXTT11=
PLAYORDER=
